<?xml version="1.0" encoding="iso-8859-1"?>
<!-- Generator: Adobe Illustrator 19.0.0, SVG Export Plug-In . SVG Version: 6.00 Build 0)  -->
<svg version="1.1" id="Capa_1" xmlns="http://www.w3.org/2000/svg" xmlns:xlink="http://www.w3.org/1999/xlink" x="0px" y="0px"
	 viewBox="0 0 512.001 512.001" style="enable-background:new 0 0 512.001 512.001;" xml:space="preserve">
<path style="fill:#DB8F58;" d="M402.717,58.954L258.971,83.479L115.739,58.954V5.002c0-2.762,2.239-5.002,5.002-5.002h276.975
	c2.762,0,5.002,2.239,5.002,5.002v53.952H402.717z"/>
<path style="fill:#D18652;" d="M403.094,58.908h-54.325V0h49.325c2.761,0,5,2.239,5,5V58.908z"/>
<path style="fill:#CE8951;" d="M116.069,58.904l-36.152,62.813c-0.902,1.568-1.377,3.345-1.377,5.154v379.963
	c0,2.853,2.313,5.167,5.166,5.167h291.996l0.44-387.89l26.951-65.206H116.069V58.904z"/>
<path style="fill:#C4773D;" d="M403.089,58.908l-26.948,65.201L375.707,512h-54.321l0.432-385.845
	c0.001-1.35,0.268-2.687,0.784-3.935l26.167-63.311L403.089,58.908L403.089,58.908z"/>
<path style="fill:#CE8951;" d="M403.094,58.904l29.435,64.541c0.614,1.346,0.932,2.808,0.932,4.288v379.101
	c0,2.853-2.313,5.167-5.167,5.167h-52.592l0.44-387.89L403.094,58.904z"/>
<path style="fill:#C4773D;" d="M433.458,127.729v379.104c0,2.853-2.313,5.167-5.167,5.167H406.53V127.729
	c0-1.48-0.318-2.942-0.932-4.289l-15.311-33.564l12.802-30.968l29.437,64.533C433.14,124.787,433.458,126.25,433.458,127.729z"/>
<path style="fill:#EFD1B9;" d="M227.264,0v58.904l-30.855,70.266v86.898c0,5.707,4.626,10.333,10.333,10.333h39.329
	c5.707,0,10.333-4.626,10.333-10.333v-85.184l28.82-71.981V0H227.264z"/>
<path style="fill:#E5B89A;" d="M285.221,0v58.908l-28.819,71.98v85.185c0,5.707-4.626,10.333-10.333,10.333h-12.833v-95.518
	l28.819-71.98V0H285.221z"/>
<ellipse transform="matrix(0.4523 -0.8919 0.8919 0.4523 -206.6772 410.9124)" style="fill:#9E4716;" cx="231.217" cy="373.728" rx="81.162" ry="59.452"/>
<path style="fill:#7F3B0D;" d="M284.229,400.6c-20.273,39.978-60.448,60.345-89.732,45.496c-5.652-2.862-10.488-6.83-14.456-11.656
	c27.982,6.913,62.143-13.164,80.318-48.989c16.367-32.27,14.755-67.443-1.87-87.624c3.234,0.796,6.386,1.963,9.424,3.503
	C297.197,316.179,304.502,360.632,284.229,400.6z"/>
<path style="fill:#C4773D;" d="M189.004,447.315c-3.562,0-6.769-2.471-7.563-6.093c-0.916-4.182,1.731-8.313,5.912-9.229
	c36.354-7.965,37.556-45.658,37.058-57.021c-0.158-3.615-0.12-6.633,0.123-9.496c3.713-43.95,41.65-67.53,43.263-68.513
	c3.655-2.225,8.423-1.068,10.65,2.589c2.223,3.65,1.071,8.41-2.573,10.64l0,0c-0.328,0.202-32.857,20.617-35.896,56.589
	c-0.185,2.188-0.211,4.575-0.082,7.513c1.302,29.714-10.947,64.453-49.226,72.84C190.112,447.255,189.554,447.315,189.004,447.315z"
	/>
<g>
</g>
<g>
</g>
<g>
</g>
<g>
</g>
<g>
</g>
<g>
</g>
<g>
</g>
<g>
</g>
<g>
</g>
<g>
</g>
<g>
</g>
<g>
</g>
<g>
</g>
<g>
</g>
<g>
</g>
</svg>
